<?xml version="1.0" encoding="UTF-8"?>
<!DOCTYPE svg PUBLIC "-//W3C//DTD SVG 1.1//EN" "http://www.w3.org/Graphics/SVG/1.1/DTD/svg11.dtd">
<!-- Creator: CorelDRAW 2017 -->
<svg xmlns="http://www.w3.org/2000/svg" xml:space="preserve" width="174.387mm" height="31.5182mm" version="1.1" style="shape-rendering:geometricPrecision; text-rendering:geometricPrecision; image-rendering:optimizeQuality; fill-rule:evenodd; clip-rule:evenodd"
viewBox="0 0 19555.3 3534.36"
 xmlns:xlink="http://www.w3.org/1999/xlink">
 <defs>
  <style type="text/css">
   <![CDATA[
    .fil2 {fill:#CCA84A;fill-rule:nonzero}
    .fil0 {fill:#CCA84A}
    .fil1 {fill:#EAC668}
   ]]>
  </style>
 </defs>
 <g id="Capa_x0020_1">
  <metadata id="CorelCorpID_0Corel-Layer"/>
  <g id="_1586729527152">
   <g>
    <polygon class="fil0" points="3856.06,3495.58 4642.15,3495.58 3679.39,759.13 3274.85,1896.66 "/>
    <polygon class="fil0" points="1930.56,3501.69 2716.64,3501.69 1753.88,765.25 1349.35,1902.79 "/>
    <polygon class="fil1" points="2893.29,759.13 3679.39,759.13 2716.64,3501.69 1925.51,3491.75 2350.58,2291.53 2798.4,2291.53 2834.74,2193.47 2385.29,2193.47 2487.65,1904.45 2690.75,1904.45 2727.07,1806.38 2522.39,1806.38 2625.35,1515.67 3065.52,1515.67 3101.85,1417.6 2660.09,1417.6 2762.45,1128.61 2962.21,1128.61 2998.55,1030.54 2797.16,1030.54 "/>
    <polygon class="fil1" points="967.8,765.25 1753.88,765.25 791.12,3507.82 -0,3497.86 148.72,3077.94 591.57,3077.94 627.89,2979.87 183.46,2979.87 285.81,2690.85 483.91,2690.85 520.24,2592.79 320.56,2592.79 427.25,2291.53 871.36,2291.53 907.69,2193.47 461.96,2193.47 564.32,1904.45 763.71,1904.45 800.04,1806.38 599.06,1806.38 702.02,1515.67 1138.48,1515.67 1174.82,1417.6 736.76,1417.6 839.12,1128.61 1035.18,1128.61 1071.5,1030.54 873.83,1030.54 "/>
   </g>
   <path class="fil2" d="M6993.5 3069.1l0 426.15 -2052.59 0 0 -2736.77 1997.85 0 0 426.15 -1489.58 0 0 711.55 1321.47 0 0 418.34 -1321.47 0 0 754.57 1544.33 0zm-848.41 -3069.1l574.72 0 -680.28 535.62 -422.25 0 527.81 -535.62zm1970.48 1188.54l-907.04 0 0 -430.06 2322.35 0 0 430.06 -907.04 0 0 2306.72 -508.26 0 0 -2306.72zm3589.09 2306.72l-559.08 -801.49c-23.46,2.61 -58.65,3.91 -105.57,3.91l-617.73 0 0 797.57 -508.26 0 0 -2736.77 1125.99 0c237.19,0 443.75,39.09 619.68,117.28 175.94,78.19 310.82,190.27 404.66,336.23 93.84,145.97 140.74,319.29 140.74,519.99 0,205.91 -50.17,383.15 -150.52,531.72 -100.34,148.56 -244.35,259.34 -432.02,332.32l629.46 899.23 -547.35 0zm-11.73 -1763.27c0,-174.63 -57.35,-308.87 -172.03,-402.7 -114.68,-93.84 -282.8,-140.75 -504.35,-140.75l-594.27 0 0 1090.8 594.27 0c221.55,0 389.67,-47.57 504.35,-142.71 114.68,-95.13 172.03,-230.02 172.03,-404.65zm1079.07 -973.51l508.26 0 0 2736.77 -508.26 0 0 -2736.77zm2513.93 2775.87c-276.29,0 -525.86,-60.61 -748.71,-181.81 -222.85,-121.2 -397.49,-288.66 -523.9,-502.4 -126.41,-213.72 -189.61,-454.82 -189.61,-723.28 0,-268.47 63.85,-509.56 191.57,-723.3 127.71,-213.72 302.99,-381.19 525.84,-502.4 222.85,-121.2 472.42,-181.8 748.71,-181.8 224.16,0 428.77,39.1 613.83,117.3 185.05,78.19 341.43,191.57 469.16,340.13l-328.42 308.87c-198.09,-213.73 -441.8,-320.6 -731.11,-320.6 -187.66,0 -355.78,41.05 -504.35,123.16 -148.57,82.11 -264.55,196.14 -347.96,342.1 -83.41,145.96 -125.11,311.47 -125.11,496.53 0,185.06 41.7,350.56 125.11,496.53 83.41,145.96 199.39,259.99 347.96,342.1 148.57,82.1 316.69,123.15 504.35,123.15 289.31,0 533.02,-108.17 731.11,-324.5l328.42 312.77c-127.72,148.57 -284.76,261.95 -471.12,340.15 -186.36,78.19 -391.62,117.3 -615.77,117.3zm2795.41 0c-278.88,0 -530.41,-60.61 -754.56,-181.81 -224.16,-121.2 -400.09,-289.31 -527.81,-504.35 -127.72,-215.03 -191.57,-455.48 -191.57,-721.33 0,-265.87 63.85,-506.31 191.57,-721.33 127.71,-215.03 303.64,-383.15 527.81,-504.36 224.15,-121.2 475.67,-181.8 754.56,-181.8 278.9,0 530.42,60.6 754.57,181.8 224.16,121.21 400.09,288.67 527.81,502.4 127.72,213.73 191.57,454.83 191.57,723.3 0,268.47 -63.85,509.56 -191.57,723.28 -127.71,213.73 -303.64,381.2 -527.81,502.4 -224.15,121.2 -475.67,181.81 -754.57,181.81zm0 -445.71c182.46,0 346.66,-41.05 492.63,-123.15 145.96,-82.11 260.64,-196.79 344.05,-344.06 83.41,-147.26 125.11,-312.12 125.11,-494.57 0,-182.46 -41.7,-347.31 -125.11,-494.58 -83.41,-147.26 -198.09,-261.94 -344.05,-344.05 -145.97,-82.11 -310.17,-123.16 -492.63,-123.16 -182.45,0 -346.65,41.05 -492.62,123.16 -145.96,82.11 -260.64,196.79 -344.05,344.05 -83.41,147.27 -125.11,312.12 -125.11,494.58 0,182.45 41.7,347.31 125.11,494.57 83.41,147.27 198.09,261.95 344.05,344.06 145.97,82.1 310.17,123.15 492.62,123.15z"/>
  </g>
 </g>
</svg>
