<?xml version="1.0" encoding="UTF-8"?>
<!DOCTYPE svg PUBLIC "-//W3C//DTD SVG 1.1//EN" "http://www.w3.org/Graphics/SVG/1.1/DTD/svg11.dtd">
<!-- Creator: CorelDRAW 2017 -->
<svg xmlns="http://www.w3.org/2000/svg" xml:space="preserve" width="174.387mm" height="46.2236mm" version="1.1" style="shape-rendering:geometricPrecision; text-rendering:geometricPrecision; image-rendering:optimizeQuality; fill-rule:evenodd; clip-rule:evenodd"
viewBox="0 0 19555.3 5183.38"
 xmlns:xlink="http://www.w3.org/1999/xlink">
 <defs>
  <style type="text/css">
   <![CDATA[
    .fil2 {fill:#CCA84A;fill-rule:nonzero}
    .fil3 {fill:#EAC668;fill-rule:nonzero}
    .fil0 {fill:#CCA84A}
    .fil1 {fill:#EAC668}
   ]]>
  </style>
 </defs>
 <g id="Capa_x0020_1">
  <metadata id="CorelCorpID_0Corel-Layer"/>
  <g id="_1586557064000">
   <g>
    <g>
     <polygon class="fil0" points="3856.06,3495.58 4642.15,3495.58 3679.39,759.13 3274.85,1896.66 "/>
     <polygon class="fil0" points="1930.56,3501.69 2716.64,3501.69 1753.88,765.25 1349.35,1902.79 "/>
     <polygon class="fil1" points="2893.29,759.13 3679.39,759.13 2716.64,3501.69 1925.51,3491.75 2350.58,2291.53 2798.4,2291.53 2834.74,2193.47 2385.29,2193.47 2487.65,1904.45 2690.75,1904.45 2727.07,1806.38 2522.39,1806.38 2625.35,1515.67 3065.52,1515.67 3101.85,1417.6 2660.09,1417.6 2762.45,1128.61 2962.21,1128.61 2998.55,1030.54 2797.16,1030.54 "/>
     <polygon class="fil1" points="967.8,765.25 1753.88,765.25 791.12,3507.82 -0,3497.86 148.72,3077.94 591.57,3077.94 627.89,2979.87 183.46,2979.87 285.81,2690.85 483.91,2690.85 520.24,2592.79 320.56,2592.79 427.25,2291.53 871.36,2291.53 907.69,2193.47 461.96,2193.47 564.32,1904.45 763.71,1904.45 800.04,1806.38 599.06,1806.38 702.02,1515.67 1138.48,1515.67 1174.82,1417.6 736.76,1417.6 839.12,1128.61 1035.18,1128.61 1071.5,1030.54 873.83,1030.54 "/>
    </g>
    <path class="fil2" d="M6993.5 3069.1l0 426.15 -2052.59 0 0 -2736.77 1997.85 0 0 426.15 -1489.58 0 0 711.55 1321.47 0 0 418.34 -1321.47 0 0 754.57 1544.33 0zm-848.41 -3069.1l574.72 0 -680.28 535.62 -422.25 0 527.81 -535.62zm1970.48 1188.54l-907.04 0 0 -430.06 2322.35 0 0 430.06 -907.04 0 0 2306.72 -508.26 0 0 -2306.72zm3589.09 2306.72l-559.08 -801.49c-23.46,2.61 -58.65,3.91 -105.57,3.91l-617.73 0 0 797.57 -508.26 0 0 -2736.77 1125.99 0c237.19,0 443.75,39.09 619.68,117.28 175.94,78.19 310.82,190.27 404.66,336.23 93.84,145.97 140.74,319.29 140.74,519.99 0,205.91 -50.17,383.15 -150.52,531.72 -100.34,148.56 -244.35,259.34 -432.02,332.32l629.46 899.23 -547.35 0zm-11.73 -1763.27c0,-174.63 -57.35,-308.87 -172.03,-402.7 -114.68,-93.84 -282.8,-140.75 -504.35,-140.75l-594.27 0 0 1090.8 594.27 0c221.55,0 389.67,-47.57 504.35,-142.71 114.68,-95.13 172.03,-230.02 172.03,-404.65zm1079.07 -973.51l508.26 0 0 2736.77 -508.26 0 0 -2736.77zm2513.93 2775.87c-276.29,0 -525.86,-60.61 -748.71,-181.81 -222.85,-121.2 -397.49,-288.66 -523.9,-502.4 -126.41,-213.72 -189.61,-454.82 -189.61,-723.28 0,-268.47 63.85,-509.56 191.57,-723.3 127.71,-213.72 302.99,-381.19 525.84,-502.4 222.85,-121.2 472.42,-181.8 748.71,-181.8 224.16,0 428.77,39.1 613.83,117.3 185.05,78.19 341.43,191.57 469.16,340.13l-328.42 308.87c-198.09,-213.73 -441.8,-320.6 -731.11,-320.6 -187.66,0 -355.78,41.05 -504.35,123.16 -148.57,82.11 -264.55,196.14 -347.96,342.1 -83.41,145.96 -125.11,311.47 -125.11,496.53 0,185.06 41.7,350.56 125.11,496.53 83.41,145.96 199.39,259.99 347.96,342.1 148.57,82.1 316.69,123.15 504.35,123.15 289.31,0 533.02,-108.17 731.11,-324.5l328.42 312.77c-127.72,148.57 -284.76,261.95 -471.12,340.15 -186.36,78.19 -391.62,117.3 -615.77,117.3zm2795.41 0c-278.88,0 -530.41,-60.61 -754.56,-181.81 -224.16,-121.2 -400.09,-289.31 -527.81,-504.35 -127.72,-215.03 -191.57,-455.48 -191.57,-721.33 0,-265.87 63.85,-506.31 191.57,-721.33 127.71,-215.03 303.64,-383.15 527.81,-504.36 224.15,-121.2 475.67,-181.8 754.56,-181.8 278.9,0 530.42,60.6 754.57,181.8 224.16,121.21 400.09,288.67 527.81,502.4 127.72,213.73 191.57,454.83 191.57,723.3 0,268.47 -63.85,509.56 -191.57,723.28 -127.71,213.73 -303.64,381.2 -527.81,502.4 -224.15,121.2 -475.67,181.81 -754.57,181.81zm0 -445.71c182.46,0 346.66,-41.05 492.63,-123.15 145.96,-82.11 260.64,-196.79 344.05,-344.06 83.41,-147.26 125.11,-312.12 125.11,-494.57 0,-182.46 -41.7,-347.31 -125.11,-494.58 -83.41,-147.26 -198.09,-261.94 -344.05,-344.05 -145.97,-82.11 -310.17,-123.16 -492.63,-123.16 -182.45,0 -346.65,41.05 -492.62,123.16 -145.96,82.11 -260.64,196.79 -344.05,344.05 -83.41,147.27 -125.11,312.12 -125.11,494.58 0,182.45 41.7,347.31 125.11,494.57 83.41,147.27 198.09,261.95 344.05,344.06 145.97,82.1 310.17,123.15 492.62,123.15z"/>
   </g>
   <path class="fil3" d="M4436.29 3949.14l174.33 0 0 1220.29 -174.33 0 0 -1220.29zm1589.86 0l0 1220.29 -142.95 0 -732.17 -909.98 0 909.98 -174.33 0 0 -1220.29 142.95 0 732.17 909.98 0 -909.98 174.33 0zm608.4 151.67l-418.38 0 0 -151.67 1009.35 0 0 151.67 -418.38 0 0 1068.62 -172.58 0 0 -1068.62zm1666.56 916.96l0 151.67 -885.58 0 0 -1220.29 861.17 0 0 151.67 -686.84 0 0 374.81 611.89 0 0 148.18 -611.89 0 0 393.97 711.25 0zm1098.25 151.67l-263.23 -374.8c-32.54,2.32 -58.11,3.48 -76.7,3.48l-301.58 0 0 371.32 -174.33 0 0 -1220.29 475.91 0c158.06,0 282.41,37.78 373.06,113.31 90.65,75.55 135.98,179.55 135.98,312.04 0,94.14 -23.25,174.33 -69.73,240.57 -46.49,66.25 -112.73,114.48 -198.74,144.69l289.38 409.67 -190.02 0zm-345.16 -519.49c110.4,0 194.66,-23.83 252.77,-71.48 58.11,-47.65 87.16,-115.64 87.16,-203.97 0,-88.32 -29.05,-156.02 -87.16,-203.09 -58.11,-47.06 -142.37,-70.6 -252.77,-70.6l-296.36 0 0 549.14 296.36 0zm796.67 -700.8l174.33 0 0 1220.29 -174.33 0 0 -1220.29zm1091.28 1234.24c-123.19,0 -234.18,-27.03 -332.97,-81.06 -98.78,-54.04 -176.36,-128.71 -232.72,-224.01 -56.37,-95.31 -84.55,-201.64 -84.55,-319.02 0,-117.39 28.18,-223.72 84.55,-319.02 56.36,-95.29 133.94,-169.97 232.72,-224.01 98.79,-54.05 209.77,-81.06 332.97,-81.06 122.03,0 232.44,27.01 331.22,81.06 98.78,54.04 176.07,128.42 231.85,223.13 55.78,94.72 83.68,201.35 83.68,319.89 0,118.54 -27.9,225.17 -83.68,319.88 -55.79,94.72 -133.07,169.1 -231.85,223.14 -98.78,54.04 -209.19,81.06 -331.22,81.06zm0 -155.15c89.49,0 169.97,-20.34 241.44,-61.01 71.48,-40.67 127.84,-96.75 169.09,-168.23 41.26,-71.48 61.89,-151.37 61.89,-239.69 0,-88.33 -20.63,-168.23 -61.89,-239.7 -41.26,-71.48 -97.62,-127.54 -169.09,-168.22 -71.48,-40.68 -151.96,-61.02 -241.44,-61.02 -89.49,0 -170.55,20.34 -243.19,61.02 -72.63,40.67 -129.57,96.74 -170.83,168.22 -41.27,71.48 -61.89,151.37 -61.89,239.7 0,88.32 20.62,168.22 61.89,239.69 41.26,71.48 98.2,127.56 170.83,168.23 72.64,40.67 153.71,61.01 243.19,61.01zm1729.31 141.2l-263.23 -374.8c-32.54,2.32 -58.11,3.48 -76.7,3.48l-301.58 0 0 371.32 -174.33 0 0 -1220.29 475.91 0c158.06,0 282.41,37.78 373.06,113.31 90.65,75.55 135.98,179.55 135.98,312.04 0,94.14 -23.25,174.33 -69.73,240.57 -46.49,66.25 -112.73,114.48 -198.74,144.69l289.38 409.67 -190.02 0zm-345.16 -519.49c110.4,0 194.66,-23.83 252.77,-71.48 58.11,-47.65 87.16,-115.64 87.16,-203.97 0,-88.32 -29.05,-156.02 -87.16,-203.09 -58.11,-47.06 -142.37,-70.6 -252.77,-70.6l-296.36 0 0 549.14 296.36 0zm1682.25 367.82l0 151.67 -885.58 0 0 -1220.29 861.17 0 0 151.67 -686.84 0 0 374.81 611.89 0 0 148.18 -611.89 0 0 393.97 711.25 0zm638.04 165.62c-91.82,0 -180.43,-14.24 -265.85,-42.71 -85.41,-28.47 -152.53,-65.38 -201.34,-110.7l64.5 -135.97c46.48,41.84 106.05,75.83 178.68,101.98 72.64,26.15 147.3,39.23 224.02,39.23 101.1,0 176.65,-17.15 226.62,-51.43 49.98,-34.29 74.96,-79.9 74.96,-136.85 0,-41.84 -13.66,-75.83 -40.97,-101.98 -27.31,-26.15 -61.01,-46.2 -101.1,-60.14 -40.1,-13.95 -96.75,-29.64 -169.97,-47.08 -91.82,-22.08 -165.91,-44.16 -222.27,-66.24 -56.37,-22.08 -104.6,-56.08 -144.69,-101.98 -40.1,-45.91 -60.14,-107.8 -60.14,-185.67 0,-65.07 17.13,-123.77 51.43,-176.07 34.28,-52.3 86.29,-94.14 156.02,-125.52 69.73,-31.38 156.31,-47.06 259.74,-47.06 72.06,0 142.95,9.3 212.68,27.89 69.74,18.59 129.59,45.33 179.55,80.19l-57.53 139.46c-51.13,-32.54 -105.76,-57.23 -163.87,-74.09 -58.11,-16.85 -115.05,-25.28 -170.84,-25.28 -98.78,0 -172.87,18.01 -222.27,54.04 -49.39,36.03 -74.09,82.51 -74.09,139.46 0,41.83 13.95,75.83 41.84,101.98 27.9,26.15 62.47,46.48 103.73,61.01 41.26,14.52 97.33,29.93 168.23,46.19 91.81,22.09 165.6,44.17 221.39,66.25 55.79,22.08 103.73,55.79 143.82,101.1 40.1,45.33 60.15,106.34 60.15,183.05 0,63.92 -17.44,122.31 -52.3,175.19 -34.86,52.88 -87.75,94.72 -158.64,125.52 -70.89,30.79 -158.06,46.2 -261.48,46.2z"/>
  </g>
 </g>
</svg>
